<mxfile host="app.diagrams.net" agent="Mozilla/5.0 (Windows NT 10.0; Win64; x64) AppleWebKit/537.36 (KHTML, like Gecko) Chrome/129.0.0.0 Safari/537.36" version="24.8.0">
  <diagram id="C5RBs43oDa-KdzZeNtuy" name="Page-1">
    <mxGraphModel dx="1156" dy="611" grid="1" gridSize="10" guides="1" tooltips="1" connect="1" arrows="1" fold="1" page="1" pageScale="1" pageWidth="827" pageHeight="1169" math="0" shadow="0">
      <root>
        <mxCell id="WIyWlLk6GJQsqaUBKTNV-0" />
        <mxCell id="WIyWlLk6GJQsqaUBKTNV-1" parent="WIyWlLk6GJQsqaUBKTNV-0" />
        <mxCell id="j8MlA-ELKG5osYsJ9oKs-2" style="edgeStyle=orthogonalEdgeStyle;rounded=0;orthogonalLoop=1;jettySize=auto;html=1;exitX=1;exitY=0.5;exitDx=0;exitDy=0;fontStyle=1;fontFamily=Times New Roman;fontSize=13;" edge="1" parent="WIyWlLk6GJQsqaUBKTNV-1" source="WIyWlLk6GJQsqaUBKTNV-3" target="WIyWlLk6GJQsqaUBKTNV-11">
          <mxGeometry relative="1" as="geometry" />
        </mxCell>
        <mxCell id="j8MlA-ELKG5osYsJ9oKs-3" style="edgeStyle=orthogonalEdgeStyle;rounded=0;orthogonalLoop=1;jettySize=auto;html=1;exitX=0;exitY=0.5;exitDx=0;exitDy=0;fontStyle=1;fontFamily=Times New Roman;fontSize=13;" edge="1" parent="WIyWlLk6GJQsqaUBKTNV-1" source="WIyWlLk6GJQsqaUBKTNV-3" target="WIyWlLk6GJQsqaUBKTNV-12">
          <mxGeometry relative="1" as="geometry" />
        </mxCell>
        <mxCell id="j8MlA-ELKG5osYsJ9oKs-5" value="" style="edgeStyle=orthogonalEdgeStyle;rounded=0;orthogonalLoop=1;jettySize=auto;html=1;fontStyle=1;fontFamily=Times New Roman;fontSize=13;" edge="1" parent="WIyWlLk6GJQsqaUBKTNV-1" source="WIyWlLk6GJQsqaUBKTNV-3" target="j8MlA-ELKG5osYsJ9oKs-4">
          <mxGeometry relative="1" as="geometry" />
        </mxCell>
        <mxCell id="WIyWlLk6GJQsqaUBKTNV-3" value="&lt;p class=&quot;MsoNormal&quot; style=&quot;font-size: 13px;&quot;&gt;&lt;span style=&quot;font-size: 13px;&quot;&gt;&lt;span style=&quot;font-size: 13px;&quot; lang=&quot;ms&quot;&gt;Ewen Library Management&amp;nbsp;System&lt;/span&gt;&lt;/span&gt;&lt;/p&gt;" style="rounded=1;whiteSpace=wrap;html=1;fontSize=13;glass=0;strokeWidth=1;shadow=0;align=center;fontStyle=1;fontFamily=Times New Roman;" parent="WIyWlLk6GJQsqaUBKTNV-1" vertex="1">
          <mxGeometry x="300" y="70" width="220" height="40" as="geometry" />
        </mxCell>
        <mxCell id="j8MlA-ELKG5osYsJ9oKs-11" value="" style="edgeStyle=orthogonalEdgeStyle;rounded=0;orthogonalLoop=1;jettySize=auto;html=1;fontStyle=1;fontFamily=Times New Roman;fontSize=13;" edge="1" parent="WIyWlLk6GJQsqaUBKTNV-1" source="WIyWlLk6GJQsqaUBKTNV-11" target="j8MlA-ELKG5osYsJ9oKs-10">
          <mxGeometry relative="1" as="geometry" />
        </mxCell>
        <mxCell id="WIyWlLk6GJQsqaUBKTNV-11" value="Administrator" style="rounded=1;whiteSpace=wrap;html=1;fontSize=13;glass=0;strokeWidth=1;shadow=0;fontStyle=1;fontFamily=Times New Roman;" parent="WIyWlLk6GJQsqaUBKTNV-1" vertex="1">
          <mxGeometry x="615" y="160" width="120" height="40" as="geometry" />
        </mxCell>
        <mxCell id="j8MlA-ELKG5osYsJ9oKs-7" value="" style="edgeStyle=orthogonalEdgeStyle;rounded=0;orthogonalLoop=1;jettySize=auto;html=1;fontStyle=1;fontFamily=Times New Roman;fontSize=13;" edge="1" parent="WIyWlLk6GJQsqaUBKTNV-1" source="WIyWlLk6GJQsqaUBKTNV-12" target="j8MlA-ELKG5osYsJ9oKs-6">
          <mxGeometry relative="1" as="geometry" />
        </mxCell>
        <mxCell id="WIyWlLk6GJQsqaUBKTNV-12" value="User" style="rounded=1;whiteSpace=wrap;html=1;fontSize=13;glass=0;strokeWidth=1;shadow=0;fontStyle=1;fontFamily=Times New Roman;" parent="WIyWlLk6GJQsqaUBKTNV-1" vertex="1">
          <mxGeometry x="85" y="160" width="120" height="40" as="geometry" />
        </mxCell>
        <mxCell id="j8MlA-ELKG5osYsJ9oKs-9" value="" style="edgeStyle=orthogonalEdgeStyle;rounded=0;orthogonalLoop=1;jettySize=auto;html=1;fontStyle=1;fontFamily=Times New Roman;fontSize=13;" edge="1" parent="WIyWlLk6GJQsqaUBKTNV-1" source="j8MlA-ELKG5osYsJ9oKs-4" target="j8MlA-ELKG5osYsJ9oKs-8">
          <mxGeometry relative="1" as="geometry" />
        </mxCell>
        <mxCell id="j8MlA-ELKG5osYsJ9oKs-4" value="Librarian" style="whiteSpace=wrap;html=1;rounded=1;glass=0;strokeWidth=1;shadow=0;fontStyle=1;fontFamily=Times New Roman;fontSize=13;" vertex="1" parent="WIyWlLk6GJQsqaUBKTNV-1">
          <mxGeometry x="350" y="160" width="120" height="40" as="geometry" />
        </mxCell>
        <mxCell id="j8MlA-ELKG5osYsJ9oKs-17" value="" style="edgeStyle=orthogonalEdgeStyle;rounded=0;orthogonalLoop=1;jettySize=auto;html=1;fontStyle=1;fontFamily=Times New Roman;fontSize=13;" edge="1" parent="WIyWlLk6GJQsqaUBKTNV-1" source="j8MlA-ELKG5osYsJ9oKs-6" target="j8MlA-ELKG5osYsJ9oKs-14">
          <mxGeometry relative="1" as="geometry" />
        </mxCell>
        <mxCell id="j8MlA-ELKG5osYsJ9oKs-6" value="Login / Register" style="whiteSpace=wrap;html=1;rounded=1;glass=0;strokeWidth=1;shadow=0;fontStyle=1;fontFamily=Times New Roman;fontSize=13;" vertex="1" parent="WIyWlLk6GJQsqaUBKTNV-1">
          <mxGeometry x="85" y="240" width="120" height="40" as="geometry" />
        </mxCell>
        <mxCell id="j8MlA-ELKG5osYsJ9oKs-29" value="" style="edgeStyle=orthogonalEdgeStyle;rounded=0;orthogonalLoop=1;jettySize=auto;html=1;fontStyle=1;fontFamily=Times New Roman;fontSize=13;" edge="1" parent="WIyWlLk6GJQsqaUBKTNV-1" source="j8MlA-ELKG5osYsJ9oKs-8" target="j8MlA-ELKG5osYsJ9oKs-28">
          <mxGeometry relative="1" as="geometry" />
        </mxCell>
        <mxCell id="j8MlA-ELKG5osYsJ9oKs-8" value="Login" style="whiteSpace=wrap;html=1;rounded=1;glass=0;strokeWidth=1;shadow=0;fontStyle=1;fontFamily=Times New Roman;fontSize=13;" vertex="1" parent="WIyWlLk6GJQsqaUBKTNV-1">
          <mxGeometry x="350" y="240" width="120" height="40" as="geometry" />
        </mxCell>
        <mxCell id="j8MlA-ELKG5osYsJ9oKs-16" value="" style="edgeStyle=orthogonalEdgeStyle;rounded=0;orthogonalLoop=1;jettySize=auto;html=1;fontStyle=1;fontFamily=Times New Roman;fontSize=13;" edge="1" parent="WIyWlLk6GJQsqaUBKTNV-1" source="j8MlA-ELKG5osYsJ9oKs-10" target="j8MlA-ELKG5osYsJ9oKs-15">
          <mxGeometry relative="1" as="geometry" />
        </mxCell>
        <mxCell id="j8MlA-ELKG5osYsJ9oKs-10" value="Login" style="whiteSpace=wrap;html=1;rounded=1;glass=0;strokeWidth=1;shadow=0;fontStyle=1;fontFamily=Times New Roman;fontSize=13;" vertex="1" parent="WIyWlLk6GJQsqaUBKTNV-1">
          <mxGeometry x="615" y="240" width="120" height="40" as="geometry" />
        </mxCell>
        <mxCell id="j8MlA-ELKG5osYsJ9oKs-25" value="" style="edgeStyle=orthogonalEdgeStyle;rounded=0;orthogonalLoop=1;jettySize=auto;html=1;fontStyle=1;fontFamily=Times New Roman;fontSize=13;" edge="1" parent="WIyWlLk6GJQsqaUBKTNV-1" source="j8MlA-ELKG5osYsJ9oKs-12" target="j8MlA-ELKG5osYsJ9oKs-24">
          <mxGeometry relative="1" as="geometry" />
        </mxCell>
        <mxCell id="j8MlA-ELKG5osYsJ9oKs-12" value="&amp;nbsp;Delete expired bookings" style="whiteSpace=wrap;html=1;rounded=1;glass=0;strokeWidth=1;shadow=0;fontStyle=1;fontFamily=Times New Roman;fontSize=13;" vertex="1" parent="WIyWlLk6GJQsqaUBKTNV-1">
          <mxGeometry x="335" y="400" width="150" height="40" as="geometry" />
        </mxCell>
        <mxCell id="j8MlA-ELKG5osYsJ9oKs-19" value="" style="edgeStyle=orthogonalEdgeStyle;rounded=0;orthogonalLoop=1;jettySize=auto;html=1;fontStyle=1;fontFamily=Times New Roman;fontSize=13;" edge="1" parent="WIyWlLk6GJQsqaUBKTNV-1" source="j8MlA-ELKG5osYsJ9oKs-14" target="j8MlA-ELKG5osYsJ9oKs-18">
          <mxGeometry relative="1" as="geometry" />
        </mxCell>
        <mxCell id="j8MlA-ELKG5osYsJ9oKs-14" value="View, borrow and return&lt;br style=&quot;font-size: 13px;&quot;&gt;books at the time&amp;nbsp;" style="whiteSpace=wrap;html=1;rounded=1;glass=0;strokeWidth=1;shadow=0;fontStyle=1;fontFamily=Times New Roman;fontSize=13;" vertex="1" parent="WIyWlLk6GJQsqaUBKTNV-1">
          <mxGeometry x="70" y="320" width="150" height="40" as="geometry" />
        </mxCell>
        <mxCell id="j8MlA-ELKG5osYsJ9oKs-38" value="" style="edgeStyle=orthogonalEdgeStyle;rounded=0;orthogonalLoop=1;jettySize=auto;html=1;" edge="1" parent="WIyWlLk6GJQsqaUBKTNV-1" source="j8MlA-ELKG5osYsJ9oKs-15" target="j8MlA-ELKG5osYsJ9oKs-37">
          <mxGeometry relative="1" as="geometry" />
        </mxCell>
        <mxCell id="j8MlA-ELKG5osYsJ9oKs-15" value="&amp;nbsp;View users registered" style="whiteSpace=wrap;html=1;rounded=1;glass=0;strokeWidth=1;shadow=0;fontStyle=1;fontFamily=Times New Roman;fontSize=13;" vertex="1" parent="WIyWlLk6GJQsqaUBKTNV-1">
          <mxGeometry x="615" y="320" width="120" height="40" as="geometry" />
        </mxCell>
        <mxCell id="j8MlA-ELKG5osYsJ9oKs-21" value="" style="edgeStyle=orthogonalEdgeStyle;rounded=0;orthogonalLoop=1;jettySize=auto;html=1;fontStyle=1;fontFamily=Times New Roman;fontSize=13;" edge="1" parent="WIyWlLk6GJQsqaUBKTNV-1" source="j8MlA-ELKG5osYsJ9oKs-18" target="j8MlA-ELKG5osYsJ9oKs-20">
          <mxGeometry relative="1" as="geometry" />
        </mxCell>
        <mxCell id="j8MlA-ELKG5osYsJ9oKs-18" value="Make/ cancel booking for equipment and meeting rooms available" style="whiteSpace=wrap;html=1;rounded=1;glass=0;strokeWidth=1;shadow=0;fontStyle=1;fontFamily=Times New Roman;fontSize=13;" vertex="1" parent="WIyWlLk6GJQsqaUBKTNV-1">
          <mxGeometry x="35" y="400" width="220" height="40" as="geometry" />
        </mxCell>
        <mxCell id="j8MlA-ELKG5osYsJ9oKs-32" value="" style="edgeStyle=orthogonalEdgeStyle;rounded=0;orthogonalLoop=1;jettySize=auto;html=1;fontStyle=1;fontFamily=Times New Roman;fontSize=13;" edge="1" parent="WIyWlLk6GJQsqaUBKTNV-1" source="j8MlA-ELKG5osYsJ9oKs-20" target="j8MlA-ELKG5osYsJ9oKs-31">
          <mxGeometry relative="1" as="geometry" />
        </mxCell>
        <mxCell id="j8MlA-ELKG5osYsJ9oKs-20" value="View, borrow and return &lt;br style=&quot;font-size: 13px;&quot;&gt;books at the time&amp;nbsp;" style="whiteSpace=wrap;html=1;rounded=1;glass=0;strokeWidth=1;shadow=0;fontStyle=1;fontFamily=Times New Roman;fontSize=13;" vertex="1" parent="WIyWlLk6GJQsqaUBKTNV-1">
          <mxGeometry x="65" y="480" width="160" height="40" as="geometry" />
        </mxCell>
        <mxCell id="j8MlA-ELKG5osYsJ9oKs-22" value="Analyse the frequency of the &lt;br style=&quot;font-size: 13px;&quot;&gt;items been used by users" style="whiteSpace=wrap;html=1;rounded=1;glass=0;strokeWidth=1;shadow=0;fontStyle=1;fontFamily=Times New Roman;fontSize=13;" vertex="1" parent="WIyWlLk6GJQsqaUBKTNV-1">
          <mxGeometry x="590" y="480" width="170" height="40" as="geometry" />
        </mxCell>
        <mxCell id="j8MlA-ELKG5osYsJ9oKs-24" value="Check and calculate fines owed by users" style="whiteSpace=wrap;html=1;rounded=1;glass=0;strokeWidth=1;shadow=0;fontStyle=1;fontFamily=Times New Roman;fontSize=13;" vertex="1" parent="WIyWlLk6GJQsqaUBKTNV-1">
          <mxGeometry x="330" y="480" width="160" height="40" as="geometry" />
        </mxCell>
        <mxCell id="j8MlA-ELKG5osYsJ9oKs-30" value="" style="edgeStyle=orthogonalEdgeStyle;rounded=0;orthogonalLoop=1;jettySize=auto;html=1;fontStyle=1;fontFamily=Times New Roman;fontSize=13;" edge="1" parent="WIyWlLk6GJQsqaUBKTNV-1" source="j8MlA-ELKG5osYsJ9oKs-28" target="j8MlA-ELKG5osYsJ9oKs-12">
          <mxGeometry relative="1" as="geometry" />
        </mxCell>
        <mxCell id="j8MlA-ELKG5osYsJ9oKs-28" value="Add / update book details" style="whiteSpace=wrap;html=1;rounded=1;glass=0;strokeWidth=1;shadow=0;fontStyle=1;fontFamily=Times New Roman;fontSize=13;" vertex="1" parent="WIyWlLk6GJQsqaUBKTNV-1">
          <mxGeometry x="350" y="320" width="120" height="40" as="geometry" />
        </mxCell>
        <mxCell id="j8MlA-ELKG5osYsJ9oKs-34" value="" style="edgeStyle=orthogonalEdgeStyle;rounded=0;orthogonalLoop=1;jettySize=auto;html=1;fontStyle=1;fontFamily=Times New Roman;fontSize=13;" edge="1" parent="WIyWlLk6GJQsqaUBKTNV-1" source="j8MlA-ELKG5osYsJ9oKs-31" target="j8MlA-ELKG5osYsJ9oKs-33">
          <mxGeometry relative="1" as="geometry" />
        </mxCell>
        <mxCell id="j8MlA-ELKG5osYsJ9oKs-31" value="Fines Payment" style="whiteSpace=wrap;html=1;rounded=1;glass=0;strokeWidth=1;shadow=0;fontStyle=1;fontFamily=Times New Roman;fontSize=13;" vertex="1" parent="WIyWlLk6GJQsqaUBKTNV-1">
          <mxGeometry x="85" y="560" width="120" height="40" as="geometry" />
        </mxCell>
        <mxCell id="j8MlA-ELKG5osYsJ9oKs-33" value="Receipt" style="whiteSpace=wrap;html=1;rounded=1;glass=0;strokeWidth=1;shadow=0;fontStyle=1;fontFamily=Times New Roman;fontSize=13;" vertex="1" parent="WIyWlLk6GJQsqaUBKTNV-1">
          <mxGeometry x="85" y="640" width="120" height="40" as="geometry" />
        </mxCell>
        <mxCell id="j8MlA-ELKG5osYsJ9oKs-39" value="" style="edgeStyle=orthogonalEdgeStyle;rounded=0;orthogonalLoop=1;jettySize=auto;html=1;" edge="1" parent="WIyWlLk6GJQsqaUBKTNV-1" source="j8MlA-ELKG5osYsJ9oKs-37" target="j8MlA-ELKG5osYsJ9oKs-22">
          <mxGeometry relative="1" as="geometry" />
        </mxCell>
        <mxCell id="j8MlA-ELKG5osYsJ9oKs-37" value="View all aspects of the library" style="whiteSpace=wrap;html=1;fontSize=13;fontFamily=Times New Roman;rounded=1;glass=0;strokeWidth=1;shadow=0;fontStyle=1;" vertex="1" parent="WIyWlLk6GJQsqaUBKTNV-1">
          <mxGeometry x="615" y="400" width="120" height="40" as="geometry" />
        </mxCell>
      </root>
    </mxGraphModel>
  </diagram>
</mxfile>
